<svg width="22" height="21" viewBox="0 0 22 21" fill="none" xmlns="http://www.w3.org/2000/svg">
<g clip-path="url(#clip0_32_118)">
<path fill-rule="evenodd" clip-rule="evenodd" d="M3.14286 3.75C3.14286 4.14782 2.9773 4.52936 2.6826 4.81066C2.3879 5.09196 1.9882 5.25 1.57143 5.25C1.15466 5.25 0.754961 5.09196 0.460261 4.81066C0.165561 4.52936 0 4.14782 0 3.75C0 3.35218 0.165561 2.97064 0.460261 2.68934C0.754961 2.40804 1.15466 2.25 1.57143 2.25C1.9882 2.25 2.3879 2.40804 2.6826 2.68934C2.9773 2.97064 3.14286 3.35218 3.14286 3.75ZM1.57143 12C1.9882 12 2.3879 11.842 2.6826 11.5607C2.9773 11.2794 3.14286 10.8978 3.14286 10.5C3.14286 10.1022 2.9773 9.72064 2.6826 9.43934C2.3879 9.15804 1.9882 9 1.57143 9C1.15466 9 0.754961 9.15804 0.460261 9.43934C0.165561 9.72064 0 10.1022 0 10.5C0 10.8978 0.165561 11.2794 0.460261 11.5607C0.754961 11.842 1.15466 12 1.57143 12ZM1.57143 18.75C1.9882 18.75 2.3879 18.592 2.6826 18.3107C2.9773 18.0294 3.14286 17.6478 3.14286 17.25C3.14286 16.8522 2.9773 16.4706 2.6826 16.1893C2.3879 15.908 1.9882 15.75 1.57143 15.75C1.15466 15.75 0.754961 15.908 0.460261 16.1893C0.165561 16.4706 0 16.8522 0 17.25C0 17.6478 0.165561 18.0294 0.460261 18.3107C0.754961 18.592 1.15466 18.75 1.57143 18.75ZM7.46429 2.625C7.15171 2.625 6.85193 2.74353 6.63091 2.9545C6.40988 3.16548 6.28571 3.45163 6.28571 3.75C6.28571 4.04837 6.40988 4.33452 6.63091 4.5455C6.85193 4.75647 7.15171 4.875 7.46429 4.875H20.8214C21.134 4.875 21.4338 4.75647 21.6548 4.5455C21.8758 4.33452 22 4.04837 22 3.75C22 3.45163 21.8758 3.16548 21.6548 2.9545C21.4338 2.74353 21.134 2.625 20.8214 2.625H7.46429ZM6.28571 10.5C6.28571 10.2016 6.40988 9.91548 6.63091 9.7045C6.85193 9.49353 7.15171 9.375 7.46429 9.375H20.8214C21.134 9.375 21.4338 9.49353 21.6548 9.7045C21.8758 9.91548 22 10.2016 22 10.5C22 10.7984 21.8758 11.0845 21.6548 11.2955C21.4338 11.5065 21.134 11.625 20.8214 11.625H7.46429C7.30951 11.625 7.15626 11.5959 7.01327 11.5394C6.87028 11.4828 6.74035 11.4 6.63091 11.2955C6.52147 11.191 6.43466 11.067 6.37543 10.9305C6.3162 10.794 6.28571 10.6477 6.28571 10.5ZM7.46429 16.125C7.15171 16.125 6.85193 16.2435 6.63091 16.4545C6.40988 16.6655 6.28571 16.9516 6.28571 17.25C6.28571 17.5484 6.40988 17.8345 6.63091 18.0455C6.85193 18.2565 7.15171 18.375 7.46429 18.375H20.8214C21.134 18.375 21.4338 18.2565 21.6548 18.0455C21.8758 17.8345 22 17.5484 22 17.25C22 16.9516 21.8758 16.6655 21.6548 16.4545C21.4338 16.2435 21.134 16.125 20.8214 16.125H7.46429Z" fill="white"/>
</g>
<defs>
<clipPath id="clip0_32_118">
<rect width="22" height="21" fill="white"/>
</clipPath>
</defs>
</svg>
