<svg width="13" height="12" viewBox="0 0 13 12" fill="none" xmlns="http://www.w3.org/2000/svg">
<g id="calendar-mark--calendar-date-day-month-mark">
<path id="Subtract" fill-rule="evenodd" clip-rule="evenodd" d="M10.4028 1.51789C10.4009 1.37224 10.3968 1.22663 10.3907 1.08109C10.3679 0.545089 9.98071 0.0490892 9.33678 0.0125559C9.17723 0.0038326 9.01744 -0.000347075 8.85762 2.25206e-05C8.67288 2.25206e-05 8.51457 0.00455587 8.37875 0.0125559C7.73481 0.0493559 7.34733 0.545089 7.32455 1.08109C7.32097 1.16675 7.31815 1.25245 7.31611 1.33816C6.65678 1.32522 5.99724 1.32522 5.33791 1.33816C5.33574 1.25245 5.33284 1.16675 5.3292 1.08109C5.30642 0.545089 4.91921 0.0490892 4.275 0.0125559C4.11554 0.00383793 3.95584 -0.00034174 3.79612 2.25206e-05C3.61138 2.25206e-05 3.45307 0.00455587 3.31697 0.0125559C2.67303 0.0493559 2.28583 0.545089 2.26305 1.08109C2.25743 1.20989 2.25321 1.35629 2.25096 1.51789C2.09591 1.53417 1.94105 1.55213 1.78643 1.57176C0.98165 1.67336 0.361335 2.25282 0.245764 3.01656C0.128506 3.79256 0 5.01816 0 6.66189C0 8.30562 0.128506 9.53122 0.245764 10.3072C0.361054 11.071 0.98165 11.6504 1.78671 11.7523C2.68597 11.8659 4.1808 11.9952 6.32687 11.9952C8.47295 11.9952 9.96778 11.8659 10.8673 11.7523C11.6721 11.6504 12.2924 11.0712 12.408 10.3072C12.5252 9.53122 12.6537 8.30562 12.6537 6.66189C12.6537 5.01816 12.5252 3.79256 12.408 3.01656C12.2927 2.25282 11.6721 1.67336 10.867 1.57176C10.7125 1.55224 10.5577 1.53428 10.4028 1.51789ZM5.2021 6.26189C5.2021 6.12044 5.26135 5.98479 5.36682 5.88477C5.47228 5.78475 5.61533 5.72856 5.76448 5.72856H6.88926C7.03842 5.72856 7.18146 5.78475 7.28693 5.88477C7.3924 5.98479 7.45165 6.12044 7.45165 6.26189C7.45165 6.40334 7.3924 6.53899 7.28693 6.63901C7.18146 6.73903 7.03842 6.79522 6.88926 6.79522H5.76448C5.61533 6.79522 5.47228 6.73903 5.36682 6.63901C5.26135 6.53899 5.2021 6.40334 5.2021 6.26189ZM8.85762 5.72856C8.70847 5.72856 8.56542 5.78475 8.45995 5.88477C8.35449 5.98479 8.29523 6.12044 8.29523 6.26189C8.29523 6.40334 8.35449 6.53899 8.45995 6.63901C8.56542 6.73903 8.70847 6.79522 8.85762 6.79522H9.9824C10.1316 6.79522 10.2746 6.73903 10.3801 6.63901C10.4855 6.53899 10.5448 6.40334 10.5448 6.26189C10.5448 6.12044 10.4855 5.98479 10.3801 5.88477C10.2746 5.78475 10.1316 5.72856 9.9824 5.72856H8.85762ZM4.35851 6.26189C4.35851 6.12044 4.29926 5.98479 4.19379 5.88477C4.08832 5.78475 3.94528 5.72856 3.79612 5.72856H2.67135C2.52219 5.72856 2.37915 5.78475 2.27368 5.88477C2.16821 5.98479 2.10896 6.12044 2.10896 6.26189C2.10896 6.40334 2.16821 6.53899 2.27368 6.63901C2.37915 6.73903 2.52219 6.79522 2.67135 6.79522H3.79612C3.94528 6.79522 4.08832 6.73903 4.19379 6.63901C4.29926 6.53899 4.35851 6.40334 4.35851 6.26189ZM5.76448 8.39522C5.61533 8.39522 5.47228 8.45141 5.36682 8.55143C5.26135 8.65145 5.2021 8.78711 5.2021 8.92856C5.2021 9.07001 5.26135 9.20566 5.36682 9.30568C5.47228 9.4057 5.61533 9.46189 5.76448 9.46189H6.88926C7.03842 9.46189 7.18146 9.4057 7.28693 9.30568C7.3924 9.20566 7.45165 9.07001 7.45165 8.92856C7.45165 8.78711 7.3924 8.65145 7.28693 8.55143C7.18146 8.45141 7.03842 8.39522 6.88926 8.39522H5.76448ZM8.29523 8.92856C8.29523 8.78711 8.35449 8.65145 8.45995 8.55143C8.56542 8.45141 8.70847 8.39522 8.85762 8.39522H9.9824C10.1316 8.39522 10.2746 8.45141 10.3801 8.55143C10.4855 8.65145 10.5448 8.78711 10.5448 8.92856C10.5448 9.07001 10.4855 9.20566 10.3801 9.30568C10.2746 9.4057 10.1316 9.46189 9.9824 9.46189H8.85762C8.70847 9.46189 8.56542 9.4057 8.45995 9.30568C8.35449 9.20566 8.29523 9.07001 8.29523 8.92856ZM3.79612 8.39522C3.94528 8.39522 4.08832 8.45141 4.19379 8.55143C4.29926 8.65145 4.35851 8.78711 4.35851 8.92856C4.35851 9.07001 4.29926 9.20566 4.19379 9.30568C4.08832 9.4057 3.94528 9.46189 3.79612 9.46189H2.67135C2.52219 9.46189 2.37915 9.4057 2.27368 9.30568C2.16821 9.20566 2.10896 9.07001 2.10896 8.92856C2.10896 8.78711 2.16821 8.65145 2.27368 8.55143C2.37915 8.45141 2.52219 8.39522 2.67135 8.39522H3.79612Z" fill="white" fill-opacity="0.8"/>
</g>
</svg>
