<svg width="36" height="36" viewBox="0 0 36 36" fill="none" xmlns="http://www.w3.org/2000/svg">
<circle cx="18" cy="18" r="18" fill="#423EA1"/>
<path d="M16.5254 10.2245C16.4864 9.69861 16.209 9.29606 15.8066 9.10992C15.4047 8.92454 14.9115 8.97012 14.4725 9.27347C13.8602 9.69669 13.0556 10.2892 12.0383 11.1054C10.5188 12.3253 9.70483 13.217 9.27598 13.7815C8.90801 14.2664 8.90801 14.8896 9.27598 15.3745C9.70444 15.9386 10.5188 16.8307 12.0387 18.0502C13.0556 18.8668 13.8606 19.4597 14.4729 19.8825C14.9119 20.1862 15.4055 20.2318 15.807 20.046C16.209 19.8603 16.4864 19.4577 16.525 18.9315C16.5668 18.3469 16.5966 17.7615 16.6144 17.1758C17.3659 17.1591 18.1174 17.1461 18.8691 17.1367C20.5696 17.1149 21.983 18.1995 21.983 19.812C21.983 21.5206 20.4678 22.7034 18.6704 22.7034L13.9067 22.7034C13.2004 22.7034 12.4867 23.0749 12.356 23.8279C12.3076 24.1075 12.274 24.4472 12.274 24.8517C12.274 25.2561 12.3076 25.5959 12.356 25.8755C12.4867 26.6289 13.2 27 13.9067 27L19.2464 27C23.4342 27 27 23.952 27 19.812C27 15.3553 23.149 12.0327 18.6396 11.9756C17.9521 11.9668 17.2688 11.9565 16.6136 11.9442C16.5959 11.3705 16.5662 10.7971 16.5254 10.2245Z" fill="white"/>
</svg>
