<svg width="24" height="21" viewBox="0 0 24 21" fill="none" xmlns="http://www.w3.org/2000/svg">
<path fill-rule="evenodd" clip-rule="evenodd" d="M6.89858 0.0159107C8.57858 0.137625 10.3306 0.958768 12.0071 2.61648C13.6837 0.957053 15.434 0.139339 17.1123 0.0210535C19.0083 -0.114375 20.6831 0.651911 21.8951 1.86048C24.278 4.23648 25.0271 8.53762 22.07 11.4948C22.06 11.5047 22.0497 11.5145 22.0391 11.5239L12.5831 20.0902C12.4254 20.2333 12.2201 20.3126 12.0071 20.3126C11.7942 20.3126 11.5889 20.2333 11.4311 20.0902L1.97515 11.5239C1.96462 11.5145 1.95433 11.5047 1.94429 11.4948C-1.02828 8.5222 -0.284279 4.22105 2.10715 1.84677C3.32258 0.639911 5.00086 -0.121232 6.89858 0.0159107Z" fill="white"/>
</svg>
