<svg width="23" height="23" viewBox="0 0 23 23" fill="none" xmlns="http://www.w3.org/2000/svg">
<path d="M11.25 4.20002C12.106 4.20002 12.787 4.18302 13.308 4.16152C13.789 4.14152 14.1205 3.80702 14.143 3.36702C14.162 3.01202 14.175 2.57902 14.175 2.06252C14.175 1.12252 14.132 0.460015 14.091 0.0390151L14.09 0.0290151C13.1435 0.00923113 12.1968 -0.000436076 11.25 1.50876e-05C10.2185 1.50876e-05 9.27251 0.0110151 8.41001 0.0295151L8.40851 0.0390151C8.36751 0.460015 8.32501 1.12302 8.32501 2.06252C8.32501 2.57902 8.33751 3.01251 8.35601 3.36751C8.37901 3.80751 8.71051 4.14152 9.19201 4.16152C9.71251 4.18302 10.3935 4.20002 11.25 4.20002Z" fill="white"/>
<path d="M15.675 2.06229C15.675 1.19429 15.64 0.538789 15.6 0.0712891C15.75 0.0762891 15.897 0.0822891 16.0405 0.0877891C16.7863 0.113575 17.5047 0.3751 18.0925 0.834789C18.651 1.27579 19.344 1.85979 19.992 2.50729C20.6395 3.15529 21.2235 3.84829 21.6645 4.40679C22.1245 4.99468 22.3862 5.71329 22.412 6.45929C22.4645 7.78529 22.5 9.37579 22.5 11.2498C22.5 14.9503 22.361 17.5463 22.228 19.1818C22.0945 20.8258 20.826 22.0943 19.182 22.2278C18.937 22.2478 18.6705 22.2678 18.382 22.2878C18.446 21.2053 18.5 19.7088 18.5 17.7498C18.5 15.2778 18.414 13.5418 18.331 12.4458C18.2395 11.2318 17.3095 10.2768 16.087 10.1738C15.0605 10.0868 13.475 9.99979 11.25 9.99979C9.025 9.99979 7.44 10.0868 6.413 10.1738C5.1905 10.2768 4.2605 11.2318 4.169 12.4458C4.0865 13.5418 4 15.2778 4 17.7498C4 19.7088 4.054 21.2048 4.118 22.2873C3.8295 22.2678 3.563 22.2473 3.318 22.2278C1.674 22.0943 0.4055 20.8258 0.272 19.1818C0.139 17.5463 0 14.9503 0 11.2498C0 7.54929 0.139 4.95329 0.272 3.31779C0.4055 1.67379 1.674 0.405289 3.318 0.271789C4.215 0.198789 5.401 0.124289 6.8995 0.0717891C6.8595 0.538789 6.8245 1.19429 6.8245 2.06229C6.8245 2.60379 6.8385 3.06279 6.858 3.44479C6.923 4.69879 7.916 5.60929 9.129 5.65979C9.6715 5.68279 10.374 5.69979 11.25 5.69979C12.126 5.69979 12.828 5.68279 13.3705 5.65979C14.5835 5.60929 15.576 4.69879 15.6415 3.44479C15.6646 2.98432 15.6758 2.52333 15.675 2.06229Z" fill="white"/>
<path fill-rule="evenodd" clip-rule="evenodd" d="M16.874 22.375C15.3975 22.447 13.534 22.5 11.25 22.5C8.9655 22.5 7.102 22.447 5.626 22.375C5.5595 21.314 5.5 19.7915 5.5 17.75C5.5 15.3125 5.585 13.615 5.665 12.5585C5.7015 12.0695 6.06 11.709 6.539 11.6685C7.521 11.5855 9.064 11.5 11.25 11.5C13.436 11.5 14.979 11.5855 15.961 11.6685C16.4405 11.709 16.7985 12.0695 16.8355 12.5585C16.915 13.6145 17 15.3125 17 17.75C17 19.7915 16.94 21.314 16.874 22.375ZM8 14.75C8 14.5511 8.07902 14.3603 8.21967 14.2197C8.36032 14.079 8.55109 14 8.75 14H13.75C13.9489 14 14.1397 14.079 14.2803 14.2197C14.421 14.3603 14.5 14.5511 14.5 14.75C14.5 14.9489 14.421 15.1397 14.2803 15.2803C14.1397 15.421 13.9489 15.5 13.75 15.5H8.75C8.55109 15.5 8.36032 15.421 8.21967 15.2803C8.07902 15.1397 8 14.9489 8 14.75ZM8.75 17.5C8.55109 17.5 8.36032 17.579 8.21967 17.7197C8.07902 17.8603 8 18.0511 8 18.25C8 18.4489 8.07902 18.6397 8.21967 18.7803C8.36032 18.921 8.55109 19 8.75 19H11.75C11.9489 19 12.1397 18.921 12.2803 18.7803C12.421 18.6397 12.5 18.4489 12.5 18.25C12.5 18.0511 12.421 17.8603 12.2803 17.7197C12.1397 17.579 11.9489 17.5 11.75 17.5H8.75Z" fill="white"/>
</svg>
