<svg width="22" height="24" viewBox="0 0 22 24" fill="none" xmlns="http://www.w3.org/2000/svg">
<path fill-rule="evenodd" clip-rule="evenodd" d="M11 0.75C5.139 0.75 0.25 5.043 0.25 10.5C0.25 15.1015 3.7365 18.8835 8.335 19.948C8.349 20.189 8.363 20.405 8.3775 20.597C8.4655 21.7555 9.239 22.743 10.4605 22.95C10.7335 22.996 11.0505 23.041 11.418 23.0815C11.5228 23.093 11.6288 23.0823 11.7292 23.0501C11.8295 23.0179 11.922 22.9649 12.0005 22.8946C12.079 22.8242 12.1418 22.7381 12.1848 22.6419C12.2278 22.5456 12.25 22.4414 12.25 22.336V21C12.25 20.8011 12.329 20.6103 12.4697 20.4697C12.6103 20.329 12.8011 20.25 13 20.25C13.1989 20.25 13.3897 20.329 13.5303 20.4697C13.671 20.6103 13.75 20.8011 13.75 21V22.4975C13.75 22.695 13.8279 22.8846 13.9668 23.025C14.1058 23.1654 14.2945 23.2454 14.492 23.2475C15.0003 23.253 15.5087 23.2502 16.017 23.239C16.213 23.2346 16.3994 23.1536 16.5364 23.0134C16.6734 22.8732 16.75 22.685 16.75 22.489V21C16.75 20.8011 16.829 20.6103 16.9697 20.4697C17.1103 20.329 17.3011 20.25 17.5 20.25C17.6989 20.25 17.8897 20.329 18.0303 20.4697C18.171 20.6103 18.25 20.8011 18.25 21V22.274C18.25 22.3812 18.2731 22.4872 18.3175 22.5847C18.362 22.6823 18.4269 22.7692 18.5077 22.8395C18.5886 22.9099 18.6837 22.9621 18.7864 22.9926C18.8892 23.0232 18.9973 23.0313 19.1035 23.0165C19.26 22.995 19.405 22.9725 19.5395 22.95C20.761 22.743 21.5345 21.7555 21.6225 20.597C21.6895 19.714 21.75 18.3385 21.75 16.25V10C21.75 9.93 21.74 9.8625 21.7225 9.7985C21.322 4.677 16.609 0.75 11 0.75ZM20.25 11.5C20.25 10.1235 19.344 9.25 18.5 9.25C17.656 9.25 16.75 10.1235 16.75 11.5C16.75 12.8765 17.656 13.75 18.5 13.75C19.344 13.75 20.25 12.8765 20.25 11.5ZM9.75 11.5C9.75 10.195 10.7055 9.25 11.75 9.25C12.7945 9.25 13.75 10.195 13.75 11.5C13.75 12.805 12.7945 13.75 11.75 13.75C10.7055 13.75 9.75 12.805 9.75 11.5Z" fill="white"/>
</svg>
